<svg width="307" height="278" viewBox="0 0 307 278" fill="none" xmlns="http://www.w3.org/2000/svg">
    <circle cx="154" cy="139" r="139" fill="#FFF5E8"/>
    <path d="M143.468 99.3195H133.483C131.942 99.3195 130.692 100.57 130.692 102.113V112.108C130.692 113.651 131.942 114.902 133.483 114.902H143.468C145.01 114.902 146.259 113.651 146.259 112.108V102.113C146.259 100.57 145.01 99.3195 143.468 99.3195Z"
          fill="#91B93E"/>
    <path d="M143.468 129.759H133.483C131.942 129.759 130.692 131.01 130.692 132.553V142.548C130.692 144.091 131.942 145.342 133.483 145.342H143.468C145.01 145.342 146.259 144.091 146.259 142.548V132.553C146.259 131.01 145.01 129.759 143.468 129.759Z"
          fill="#FE9700"/>
    <path d="M141.915 93.8838H129.606C128.454 93.8838 127.349 94.342 126.534 95.1575C125.72 95.973 125.262 97.0791 125.262 98.2324V110.553C125.262 111.707 125.72 112.813 126.534 113.628C127.349 114.444 128.454 114.902 129.606 114.902H141.915C143.067 114.902 144.172 114.444 144.987 113.628C145.802 112.813 146.259 111.707 146.259 110.553V98.2324C146.259 97.0791 145.802 95.973 144.987 95.1575C144.172 94.342 143.067 93.8838 141.915 93.8838ZM141.915 109.488C141.916 109.628 141.888 109.767 141.835 109.896C141.782 110.026 141.703 110.143 141.604 110.242C141.506 110.341 141.388 110.42 141.259 110.473C141.129 110.527 140.991 110.554 140.851 110.553H130.671C130.531 110.554 130.392 110.527 130.263 110.473C130.133 110.42 130.016 110.341 129.917 110.242C129.818 110.143 129.74 110.026 129.686 109.896C129.633 109.767 129.606 109.628 129.606 109.488V99.2978C129.606 99.1577 129.633 99.019 129.686 98.8895C129.74 98.76 129.818 98.6424 129.917 98.5433C130.016 98.4443 130.133 98.3659 130.263 98.3125C130.392 98.2591 130.531 98.2319 130.671 98.2324H140.851C140.991 98.2319 141.129 98.2591 141.259 98.3125C141.388 98.3659 141.506 98.4443 141.604 98.5433C141.703 98.6424 141.782 98.76 141.835 98.8895C141.888 99.019 141.916 99.1577 141.915 99.2978V109.488Z"
          fill="#1F1F1F"/>
    <path d="M180.218 102.349C181.058 102.349 181.738 101.476 181.738 100.396C181.738 99.3158 181.058 98.4389 180.218 98.4389H152.848C152.008 98.4389 151.328 99.3158 151.328 100.396C151.328 101.476 152.008 102.349 152.848 102.349H180.218Z"
          fill="#1F1F1F"/>
    <path d="M180.218 109.959C181.058 109.959 181.738 109.086 181.738 108.006C181.738 106.926 181.058 106.049 180.218 106.049H152.848C152.008 106.049 151.328 106.926 151.328 108.006C151.328 109.086 152.008 109.959 152.848 109.959H180.218Z"
          fill="#91B93E"/>
    <path d="M143.468 160.199H133.483C131.942 160.199 130.692 161.45 130.692 162.993V172.987C130.692 174.531 131.942 175.781 133.483 175.781H143.468C145.01 175.781 146.259 174.531 146.259 172.987V162.993C146.259 161.45 145.01 160.199 143.468 160.199Z"
          fill="#91B93E"/>
    <path d="M141.915 124.324H129.606C128.454 124.324 127.349 124.782 126.534 125.597C125.72 126.413 125.262 127.519 125.262 128.672V140.993C125.262 142.146 125.72 143.252 126.534 144.068C127.349 144.883 128.454 145.342 129.606 145.342H141.915C143.067 145.342 144.172 144.883 144.987 144.068C145.802 143.252 146.259 142.146 146.259 140.993V128.672C146.259 127.519 145.802 126.413 144.987 125.597C144.172 124.782 143.067 124.324 141.915 124.324ZM141.915 139.928C141.916 140.068 141.888 140.206 141.835 140.336C141.782 140.465 141.703 140.583 141.604 140.682C141.506 140.781 141.388 140.86 141.259 140.913C141.129 140.966 140.991 140.994 140.851 140.993H130.671C130.531 140.994 130.392 140.966 130.263 140.913C130.133 140.86 130.016 140.781 129.917 140.682C129.818 140.583 129.74 140.465 129.686 140.336C129.633 140.206 129.606 140.068 129.606 139.928V129.738C129.606 129.598 129.633 129.459 129.686 129.329C129.74 129.2 129.818 129.082 129.917 128.983C130.016 128.884 130.133 128.806 130.263 128.752C130.392 128.699 130.531 128.672 130.671 128.672H140.851C140.991 128.672 141.129 128.699 141.259 128.752C141.388 128.806 141.506 128.884 141.604 128.983C141.703 129.082 141.782 129.2 141.835 129.329C141.888 129.459 141.916 129.598 141.915 129.738V139.928Z"
          fill="#1F1F1F"/>
    <path d="M180.218 132.789C181.058 132.789 181.738 131.915 181.738 130.836C181.738 129.756 181.058 128.879 180.218 128.879H152.848C152.008 128.879 151.328 129.756 151.328 130.836C151.328 131.915 152.008 132.789 152.848 132.789H180.218Z"
          fill="#1F1F1F"/>
    <path d="M180.218 140.399C181.058 140.399 181.738 139.525 181.738 138.446C181.738 137.366 181.058 136.489 180.218 136.489H152.848C152.008 136.489 151.328 137.366 151.328 138.446C151.328 139.525 152.008 140.399 152.848 140.399H180.218Z"
          fill="#FE9700"/>
    <path d="M141.915 154.763H129.606C128.454 154.763 127.349 155.222 126.534 156.037C125.72 156.853 125.262 157.959 125.262 159.112V171.433C125.262 172.586 125.72 173.692 126.534 174.508C127.349 175.323 128.454 175.781 129.606 175.781H141.915C143.067 175.781 144.172 175.323 144.987 174.508C145.802 173.692 146.259 172.586 146.259 171.433V159.112C146.259 157.959 145.802 156.853 144.987 156.037C144.172 155.222 143.067 154.763 141.915 154.763ZM141.915 170.368C141.916 170.508 141.888 170.646 141.835 170.776C141.782 170.905 141.703 171.023 141.604 171.122C141.506 171.221 141.388 171.299 141.259 171.353C141.129 171.406 140.991 171.433 140.851 171.433H130.671C130.531 171.433 130.392 171.406 130.263 171.353C130.133 171.299 130.016 171.221 129.917 171.122C129.818 171.023 129.74 170.905 129.686 170.776C129.633 170.646 129.606 170.508 129.606 170.368V160.177C129.606 160.037 129.633 159.899 129.686 159.769C129.74 159.64 129.818 159.522 129.917 159.423C130.016 159.324 130.133 159.246 130.263 159.192C130.392 159.139 130.531 159.112 130.671 159.112H140.851C140.991 159.112 141.129 159.139 141.259 159.192C141.388 159.246 141.506 159.324 141.604 159.423C141.703 159.522 141.782 159.64 141.835 159.769C141.888 159.899 141.916 160.037 141.915 160.177V170.368Z"
          fill="#1F1F1F"/>
    <path d="M180.218 163.229C181.058 163.229 181.738 162.355 181.738 161.275C181.738 160.196 181.058 159.319 180.218 159.319H152.848C152.008 159.319 151.328 160.196 151.328 161.275C151.328 162.355 152.008 163.229 152.848 163.229H180.218Z"
          fill="#1F1F1F"/>
    <path d="M180.218 170.839C181.058 170.839 181.738 169.965 181.738 168.885C181.738 167.805 181.058 166.929 180.218 166.929H152.848C152.008 166.929 151.328 167.805 151.328 168.885C151.328 169.965 152.008 170.839 152.848 170.839H180.218Z"
          fill="#91B93E"/>
    <path d="M143.468 190.639H133.483C131.942 190.639 130.692 191.89 130.692 193.433V203.427C130.692 204.97 131.942 206.221 133.483 206.221H143.468C145.01 206.221 146.259 204.97 146.259 203.427V193.433C146.259 191.89 145.01 190.639 143.468 190.639Z"
          fill="#FE9700"/>
    <path d="M141.915 185.203H129.606C128.454 185.203 127.349 185.661 126.534 186.477C125.72 187.292 125.262 188.399 125.262 189.552V201.873C125.262 203.026 125.72 204.132 126.534 204.948C127.349 205.763 128.454 206.221 129.606 206.221H141.915C143.067 206.221 144.172 205.763 144.987 204.948C145.802 204.132 146.259 203.026 146.259 201.873V189.552C146.259 188.399 145.802 187.292 144.987 186.477C144.172 185.661 143.067 185.203 141.915 185.203ZM141.915 200.807C141.916 200.947 141.888 201.086 141.835 201.216C141.782 201.345 141.703 201.463 141.604 201.562C141.506 201.661 141.388 201.739 141.259 201.793C141.129 201.846 140.991 201.873 140.851 201.873H130.671C130.531 201.873 130.392 201.846 130.263 201.793C130.133 201.739 130.016 201.661 129.917 201.562C129.818 201.463 129.74 201.345 129.686 201.216C129.633 201.086 129.606 200.947 129.606 200.807V190.617C129.606 190.477 129.633 190.338 129.686 190.209C129.74 190.08 129.818 189.962 129.917 189.863C130.016 189.764 130.133 189.685 130.263 189.632C130.392 189.579 130.531 189.551 130.671 189.552H140.851C140.991 189.551 141.129 189.579 141.259 189.632C141.388 189.685 141.506 189.764 141.604 189.863C141.703 189.962 141.782 190.08 141.835 190.209C141.888 190.338 141.916 190.477 141.915 190.617V200.807Z"
          fill="#1F1F1F"/>
    <path d="M180.218 193.668C181.058 193.668 181.738 192.795 181.738 191.715C181.738 190.635 181.058 189.758 180.218 189.758H152.848C152.008 189.758 151.328 190.635 151.328 191.715C151.328 192.795 152.008 193.668 152.848 193.668H180.218Z"
          fill="#1F1F1F"/>
    <path d="M180.218 201.278C181.058 201.278 181.738 200.405 181.738 199.325C181.738 198.245 181.058 197.368 180.218 197.368H152.848C152.008 197.368 151.328 198.245 151.328 199.325C151.328 200.405 152.008 201.278 152.848 201.278H180.218Z"
          fill="#FE9700"/>
    <path d="M191.546 42.7884H115.454C112.439 42.7884 109.546 43.9876 107.414 46.1222C105.281 48.2568 104.083 51.1519 104.083 54.1707V218.756C104.083 221.775 105.281 224.67 107.414 226.805C109.546 228.939 112.439 230.138 115.454 230.138H191.546C194.561 230.138 197.454 228.939 199.586 226.805C201.719 224.67 202.917 221.775 202.917 218.756V54.1707C202.917 51.1519 201.719 48.2568 199.586 46.1222C197.454 43.9876 194.561 42.7884 191.546 42.7884ZM198.211 216.542C198.211 218.801 197.314 220.968 195.719 222.566C194.124 224.164 191.96 225.063 189.703 225.065H117.297C115.039 225.065 112.873 224.167 111.276 222.569C109.679 220.97 108.782 218.802 108.782 216.542V56.3704C108.786 54.1124 109.685 51.9482 111.281 50.3529C112.878 48.7577 115.041 47.8617 117.297 47.8617H189.703C191.961 47.8617 194.127 48.7597 195.724 50.3581C197.321 51.9565 198.218 54.1244 198.218 56.3849L198.211 216.542Z"
          fill="#1F1F1F"/>
    <path d="M178.48 50.0359H128.52C127.42 50.0359 126.529 50.9283 126.529 52.029C126.529 53.1298 127.42 54.0221 128.52 54.0221H178.48C179.58 54.0221 180.471 53.1298 180.471 52.029C180.471 50.9283 179.58 50.0359 178.48 50.0359Z"
          fill="#1F1F1F"/>
</svg>
