<svg width="277" height="277" viewBox="0 0 277 277" fill="none" xmlns="http://www.w3.org/2000/svg">
    <circle cx="138.5" cy="138.5" r="138.5" fill="#FFF5E8"/>
    <path d="M176.778 80.8607C176.778 80.8607 170.901 67.8639 179.357 59.0246C187.814 50.1853 200.499 54.7824 200.499 54.7824C200.499 54.7824 206.753 67.0579 197.685 76.5297C188.617 86.0015 176.778 80.8607 176.778 80.8607Z"
          fill="#91B93E"/>
    <path d="M198.193 80.0277C201.44 76.4617 203.625 72.054 204.502 67.3047C205.378 62.5555 204.91 57.6548 203.151 53.1589C202.818 52.3059 202.295 51.5401 201.623 50.9194C200.951 50.2988 200.148 49.8394 199.273 49.5761C194.662 48.1874 189.756 48.123 185.111 49.3902C180.465 50.6575 176.267 53.2056 172.992 56.7455C166.207 64.1386 165.169 73.0666 169.048 82.253C169.048 82.253 189.102 82.091 197.005 80.9649C197.547 80.907 197.874 80.3748 198.193 80.0277ZM176.052 59.5878C178.794 56.6164 182.313 54.4769 186.207 53.4126C190.102 52.3483 194.216 52.4021 198.081 53.5677C198.355 53.6523 198.607 53.7974 198.818 53.9922C199.028 54.1871 199.193 54.4268 199.3 54.6938C200.775 58.4595 201.167 62.5647 200.434 66.5432C199.7 70.5217 197.869 74.214 195.148 77.2008C189.909 82.9124 185.154 79.4685 177.263 80.5599L194.011 62.3105C194.384 61.9014 194.58 61.3601 194.556 60.8057C194.532 60.2514 194.29 59.7293 193.882 59.3545C193.474 58.9796 192.934 58.7826 192.382 58.8068C191.829 58.8311 191.309 59.0745 190.935 59.4837L171.439 80.7296C170.289 77.1071 170.111 73.2449 170.92 69.531C171.73 65.8172 173.5 62.3825 176.052 59.5724V59.5878Z"
          fill="#1F1F1F"/>
    <path d="M137.347 81.5626L134.676 81.3119C128.053 81.3119 121.845 77.3743 121.845 70.7294L121.918 71.9442C122.852 65.8316 128.068 62.97 134.676 62.97C137.856 62.971 140.905 64.2392 143.154 66.4956C145.402 68.752 146.665 71.812 146.665 75.0025C146.673 81.6436 143.978 81.5626 137.347 81.5626Z"
          fill="#FE9700"/>
    <path d="M119.315 72.6809L121.329 73.5833L118.808 79.2486C118.304 80.3786 150.286 79.9968 150.459 78.0917C150.819 74.1072 149.929 70.1093 147.912 66.6576C145.896 63.206 142.854 60.4733 139.213 58.842C135.572 57.2107 131.513 56.7625 127.606 57.56C123.698 58.3576 120.137 60.3611 117.42 63.2901C116.785 63.9747 116.322 64.8014 116.069 65.7017C115.816 66.602 115.78 67.5498 115.966 68.4665C116.151 69.3832 116.551 70.2423 117.134 70.9726C117.717 71.7029 118.464 72.2832 119.315 72.6654V72.6809ZM137.382 62.9815C140.167 64.2272 142.493 66.3161 144.035 68.9553C145.577 71.5945 146.258 74.6517 145.981 77.6983C145.961 77.9158 145.891 78.1255 145.774 78.31C145.658 78.4945 145.499 78.6484 145.312 78.7588C145.126 78.8701 144.917 78.9345 144.701 78.9466C144.486 78.9587 144.27 78.9181 144.074 78.8283L142.06 77.9258L142.425 77.1005C142.546 76.8304 142.612 76.539 142.62 76.2431C142.628 75.9472 142.578 75.6525 142.473 75.376C142.368 75.0995 142.209 74.8465 142.006 74.6316C141.804 74.4166 141.56 74.2439 141.291 74.1232C141.02 74.0028 140.728 73.9371 140.432 73.9301C140.136 73.9231 139.842 73.9748 139.566 74.0823C139.29 74.1898 139.037 74.351 138.824 74.5566C138.61 74.7621 138.438 75.0081 138.32 75.2802L137.036 78.1611L124.143 78.2614L127.641 70.498C127.761 70.2264 127.827 69.9337 127.834 69.6366C127.841 69.3396 127.789 69.0441 127.682 68.7671C127.575 68.4901 127.414 68.237 127.209 68.0225C127.004 67.808 126.759 67.6361 126.488 67.5169C126.217 67.3964 125.925 67.3308 125.629 67.3238C125.333 67.3168 125.039 67.3685 124.763 67.476C124.487 67.5835 124.234 67.7447 124.021 67.9502C123.807 68.1558 123.635 68.4017 123.517 68.6739L123.151 69.4953L121.149 68.5659C120.952 68.4791 120.779 68.3457 120.645 68.177C120.511 68.0084 120.42 67.8097 120.38 67.5979C120.336 67.3833 120.345 67.1613 120.404 66.9506C120.464 66.7399 120.573 66.5466 120.722 66.3869C122.797 64.1467 125.519 62.6138 128.505 62.0032C131.492 61.3925 134.595 61.7346 137.378 62.9815H137.382Z"
          fill="#1F1F1F"/>
    <path d="M89.8779 73.888C90.6929 73.9846 91.5146 74.0117 92.3342 73.9689L93.199 73.9265L93.8141 73.3056C95.8791 71.2262 97.2925 68.5859 97.88 65.7104C98.4676 62.8348 98.2036 59.8496 97.1207 57.1227C96.0378 54.3958 94.1832 52.0464 91.7856 50.3642C89.388 48.6819 86.5522 47.7403 83.6277 47.6554C82.9647 47.6348 82.3056 47.765 81.6998 48.0361C81.0941 48.3073 80.5573 48.7124 80.1297 49.2212C78.37 51.3003 77.2069 53.8203 76.7649 56.5115C76.3229 59.2027 76.6186 61.9639 77.6205 64.4995C78.6223 67.0351 80.2925 69.2496 82.4523 70.9061C84.6121 72.5626 87.1802 73.5986 89.8817 73.9034L89.8779 73.888ZM83.5316 52.1676C85.4994 52.2336 87.4091 52.8535 89.0426 53.9565C90.6761 55.0595 91.9674 56.6011 92.7692 58.4054C93.5709 60.2096 93.8508 62.2038 93.5767 64.16C93.3027 66.1162 92.4858 67.9557 91.2194 69.4683C89.2509 69.4038 87.3402 68.7848 85.7058 67.6821C84.0714 66.5794 82.7793 65.0374 81.9773 63.2326C81.1753 61.4278 80.8957 59.4329 81.1706 57.4762C81.4455 55.5194 82.2636 53.6798 83.5316 52.1676Z"
          fill="#91B93E"/>
    <path d="M176.059 48.4075C177.839 48.4075 179.579 47.878 181.059 46.886C182.538 45.8939 183.692 44.4839 184.373 42.8342C185.054 41.1845 185.232 39.3692 184.885 37.6179C184.538 35.8666 183.681 34.2579 182.422 32.9953C181.164 31.7327 179.56 30.8728 177.815 30.5244C176.069 30.1761 174.26 30.3549 172.616 31.0382C170.971 31.7215 169.566 32.8787 168.577 34.3634C167.588 35.8481 167.061 37.5936 167.061 39.3792C167.063 41.7731 168.011 44.0682 169.698 45.7609C171.386 47.4536 173.673 48.4055 176.059 48.4075ZM176.059 34.867C176.949 34.867 177.818 35.1317 178.558 35.6275C179.297 36.1233 179.874 36.828 180.214 37.6525C180.555 38.477 180.644 39.3842 180.47 40.2595C180.297 41.1348 179.868 41.9388 179.239 42.5698C178.61 43.2009 177.809 43.6306 176.937 43.8047C176.064 43.9788 175.16 43.8895 174.338 43.548C173.516 43.2064 172.814 42.6281 172.32 41.8861C171.826 41.1441 171.562 40.2717 171.562 39.3792C171.564 38.1831 172.038 37.0366 172.881 36.1909C173.724 35.3451 174.867 34.8691 176.059 34.867Z"
          fill="#FE9700"/>
    <path d="M199.396 77.7408H171.093V64.2003C171.088 59.7126 170.194 55.2707 168.464 51.1324C166.734 46.994 164.201 43.2418 161.014 40.0934C157.827 36.945 154.048 34.4632 149.896 32.7921C145.745 31.121 141.304 30.2938 136.832 30.3587C118.32 30.6402 103.62 46.1399 103.62 64.7171V77.7408H75.3175C74.4726 77.7418 73.6627 78.0789 73.0653 78.6783C72.4679 79.2776 72.1319 80.0903 72.1309 80.9379V225.73C72.1319 226.577 72.4679 227.39 73.0653 227.989C73.6627 228.589 74.4726 228.926 75.3175 228.927H199.396C200.241 228.926 201.05 228.589 201.648 227.989C202.245 227.39 202.581 226.577 202.582 225.73V80.9379C202.581 80.0903 202.245 79.2776 201.648 78.6783C201.05 78.0789 200.241 77.7418 199.396 77.7408ZM108.133 64.2003C108.137 60.3015 108.915 56.4426 110.421 52.8486C111.927 49.2546 114.132 45.9976 116.906 43.2674C119.68 40.5373 122.968 38.3888 126.579 36.9471C130.189 35.5055 134.05 34.7997 137.935 34.8709C153.945 35.1756 166.611 48.6312 166.611 64.6939V77.7408H108.133V64.2003ZM198.081 224.415H76.6321V82.253H103.62V102.562C103.62 103.16 103.857 103.734 104.279 104.157C104.701 104.58 105.273 104.818 105.869 104.818C106.465 104.818 107.037 104.58 107.459 104.157C107.881 103.734 108.118 103.16 108.118 102.562V82.253H166.595V102.562C166.595 103.16 166.832 103.734 167.254 104.157C167.676 104.58 168.248 104.818 168.844 104.818C169.441 104.818 170.013 104.58 170.434 104.157C170.856 103.734 171.093 103.16 171.093 102.562V82.253H198.081V224.415Z"
          fill="#1F1F1F"/>
    <path fill-rule="evenodd" clip-rule="evenodd"
          d="M89.4395 161.004V145.644H91.9034C92.9549 145.607 94.0068 145.699 95.0362 145.917C95.9063 146.119 96.6898 146.593 97.2734 147.271C97.8239 147.925 98.1189 148.757 98.1037 149.612C98.1081 150.167 97.9761 150.714 97.7193 151.205C97.4157 151.74 96.9952 152.199 96.4892 152.547C97.3234 152.892 98.0459 153.462 98.5765 154.194C99.0255 154.887 99.2547 155.7 99.2338 156.527C99.2424 157.364 99.0058 158.184 98.5534 158.887C98.1269 159.571 97.5184 160.121 96.7967 160.476C95.8565 160.872 94.8401 161.053 93.8215 161.004H89.4395ZM92.4223 148.432V151.672H93.072C93.6476 151.717 94.2207 151.557 94.6903 151.22C94.866 151.071 95.0051 150.883 95.0971 150.671C95.189 150.459 95.2313 150.229 95.2207 149.998C95.2318 149.779 95.192 149.561 95.1046 149.36C95.0173 149.159 94.8846 148.981 94.7172 148.841C94.2702 148.523 93.7259 148.372 93.1796 148.417L92.4223 148.432ZM92.4223 154.279V158.216H93.1681C94.4058 158.216 95.2399 158.066 95.6705 157.757C95.8812 157.607 96.0508 157.406 96.1637 157.173C96.2766 156.94 96.329 156.682 96.3163 156.423C96.3256 156.118 96.2604 155.816 96.1264 155.542C95.9924 155.268 95.7936 155.032 95.5475 154.853C95.0349 154.47 94.1957 154.279 93.0297 154.279H92.4223Z"
          fill="#1F1F1F"/>
    <path fill-rule="evenodd" clip-rule="evenodd"
          d="M100.68 149.786H103.586V154.028L107.587 149.786H111.135L105.977 155.339L111.208 161.147H107.364L103.905 157.133L103.597 157.491V161.147H100.691L100.68 149.786Z"
          fill="#1F1F1F"/>
    <path fill-rule="evenodd" clip-rule="evenodd"
          d="M112.188 149.786H115.16L118.166 156.917L121.487 149.786H124.462L117.212 165.305H114.21L116.59 160.291L112.188 149.786Z"
          fill="#1F1F1F"/>
    <path fill-rule="evenodd" clip-rule="evenodd"
          d="M137.09 152.084L134.656 153.388C134.278 152.974 133.819 152.644 133.307 152.416C132.809 152.225 132.279 152.134 131.746 152.146C130.777 152.103 129.829 152.445 129.11 153.098C128.779 153.411 128.518 153.791 128.344 154.212C128.171 154.634 128.088 155.088 128.102 155.544C128.086 155.985 128.164 156.425 128.332 156.834C128.5 157.242 128.753 157.61 129.075 157.911C129.769 158.542 130.684 158.872 131.62 158.829C132.192 158.86 132.763 158.757 133.29 158.531C133.816 158.304 134.284 157.959 134.656 157.522L136.963 159.065C135.72 160.646 133.967 161.438 131.704 161.44C129.671 161.44 128.072 160.846 126.922 159.662C125.991 158.737 125.398 157.525 125.237 156.22C125.076 154.916 125.357 153.595 126.034 152.47C126.599 151.538 127.411 150.782 128.379 150.287C129.42 149.749 130.576 149.476 131.746 149.493C132.817 149.476 133.877 149.707 134.845 150.167C135.745 150.602 136.518 151.262 137.09 152.084Z"
          fill="#1F1F1F"/>
    <path fill-rule="evenodd" clip-rule="evenodd"
          d="M139.484 161.147V145.786H141.96C143.013 145.75 144.066 145.842 145.097 146.06C145.966 146.263 146.749 146.737 147.334 147.414C147.884 148.067 148.179 148.899 148.164 149.755C148.168 150.309 148.036 150.856 147.78 151.348C147.475 151.882 147.055 152.34 146.55 152.69C147.383 153.034 148.105 153.603 148.637 154.333C149.085 155.026 149.314 155.839 149.294 156.666C149.295 157.487 149.067 158.293 148.635 158.991C148.204 159.69 147.587 160.254 146.853 160.619C145.914 161.013 144.899 161.194 143.882 161.147H139.484ZM142.467 148.575V151.81H143.113C143.688 151.857 144.261 151.698 144.731 151.363C144.907 151.213 145.046 151.025 145.138 150.813C145.23 150.601 145.272 150.371 145.262 150.14C145.273 149.922 145.233 149.703 145.146 149.503C145.058 149.302 144.926 149.124 144.758 148.983C144.312 148.663 143.767 148.513 143.221 148.559L142.467 148.575ZM142.467 154.421V158.359H143.213C144.451 158.359 145.285 158.206 145.715 157.9C145.927 157.749 146.097 157.548 146.21 157.314C146.322 157.08 146.375 156.821 146.361 156.562C146.37 156.258 146.305 155.956 146.171 155.683C146.037 155.41 145.838 155.174 145.592 154.996C145.08 154.613 144.241 154.421 143.075 154.421H142.467Z"
          fill="#1F1F1F"/>
    <path fill-rule="evenodd" clip-rule="evenodd"
          d="M152.869 161.147H151.331V149.786H154.16V156.458L160.091 149.786H161.483V161.147H158.654V154.61L152.869 161.147Z"
          fill="#1F1F1F"/>
    <path fill-rule="evenodd" clip-rule="evenodd"
          d="M174.975 161.147H172.015L169.116 153.982L166.176 161.147H163.228L168.167 149.786H170.02L174.975 161.147Z"
          fill="#1F1F1F"/>
    <path fill-rule="evenodd" clip-rule="evenodd"
          d="M188.025 161.147H185.065L182.167 153.982L179.215 161.147H176.267L181.206 149.786H183.09L188.025 161.147Z"
          fill="#1F1F1F"/>
    <path fill-rule="evenodd" clip-rule="evenodd"
          d="M89.4395 161.004V145.644H91.9034C92.9549 145.607 94.0068 145.699 95.0362 145.917C95.9063 146.119 96.6898 146.593 97.2734 147.271C97.8239 147.925 98.1189 148.757 98.1037 149.612C98.1081 150.167 97.9761 150.714 97.7193 151.205C97.4157 151.74 96.9952 152.199 96.4892 152.547C97.3234 152.892 98.0459 153.462 98.5765 154.194C99.0255 154.887 99.2547 155.7 99.2338 156.527C99.2424 157.364 99.0058 158.184 98.5534 158.887C98.1269 159.571 97.5184 160.121 96.7967 160.476C95.8565 160.872 94.8401 161.053 93.8215 161.004H89.4395ZM92.4223 148.432V151.672H93.072C93.6476 151.717 94.2207 151.557 94.6903 151.22C94.866 151.071 95.0051 150.883 95.0971 150.671C95.189 150.459 95.2313 150.229 95.2207 149.998C95.2318 149.779 95.192 149.561 95.1046 149.36C95.0173 149.159 94.8846 148.981 94.7172 148.841C94.2702 148.523 93.7259 148.372 93.1796 148.417L92.4223 148.432ZM92.4223 154.279V158.216H93.1681C94.4058 158.216 95.2399 158.066 95.6705 157.757C95.8812 157.607 96.0508 157.406 96.1637 157.173C96.2766 156.94 96.329 156.682 96.3163 156.423C96.3256 156.118 96.2604 155.816 96.1264 155.542C95.9924 155.268 95.7936 155.032 95.5475 154.853C95.0349 154.47 94.1957 154.279 93.0297 154.279H92.4223Z"
          fill="#2D6A46"/>
    <path fill-rule="evenodd" clip-rule="evenodd"
          d="M100.68 149.786H103.586V154.028L107.587 149.786H111.135L105.977 155.339L111.208 161.147H107.364L103.905 157.132L103.597 157.491V161.147H100.691L100.68 149.786Z"
          fill="#2D6A46"/>
    <path fill-rule="evenodd" clip-rule="evenodd"
          d="M112.188 149.786H115.16L118.166 156.916L121.487 149.786H124.462L117.212 165.305H114.21L116.59 160.291L112.188 149.786Z"
          fill="#2D6A46"/>
    <path fill-rule="evenodd" clip-rule="evenodd"
          d="M137.09 152.084L134.656 153.388C134.278 152.974 133.819 152.644 133.307 152.416C132.809 152.225 132.279 152.134 131.746 152.146C130.777 152.103 129.829 152.445 129.11 153.098C128.779 153.411 128.518 153.791 128.344 154.212C128.171 154.634 128.088 155.088 128.102 155.544C128.086 155.985 128.164 156.425 128.332 156.834C128.5 157.242 128.753 157.61 129.075 157.911C129.769 158.542 130.684 158.872 131.62 158.829C132.192 158.86 132.763 158.757 133.29 158.531C133.816 158.304 134.284 157.959 134.656 157.522L136.963 159.065C135.72 160.646 133.967 161.438 131.704 161.44C129.671 161.44 128.072 160.846 126.922 159.662C125.991 158.737 125.398 157.525 125.237 156.22C125.076 154.916 125.357 153.595 126.034 152.47C126.599 151.538 127.411 150.782 128.379 150.287C129.42 149.749 130.576 149.476 131.746 149.493C132.817 149.476 133.877 149.707 134.845 150.167C135.745 150.602 136.518 151.262 137.09 152.084Z"
          fill="#2D6A46"/>
    <path fill-rule="evenodd" clip-rule="evenodd"
          d="M139.484 161.147V145.786H141.96C143.013 145.75 144.066 145.842 145.097 146.06C145.966 146.263 146.749 146.737 147.334 147.414C147.884 148.067 148.179 148.899 148.164 149.755C148.168 150.309 148.036 150.857 147.78 151.348C147.475 151.882 147.055 152.34 146.55 152.69C147.383 153.034 148.105 153.603 148.637 154.333C149.085 155.026 149.314 155.839 149.294 156.666C149.295 157.488 149.067 158.293 148.635 158.992C148.204 159.69 147.587 160.254 146.853 160.619C145.914 161.013 144.899 161.194 143.882 161.147H139.484ZM142.467 148.575V151.81H143.113C143.688 151.857 144.261 151.698 144.731 151.363C144.907 151.213 145.046 151.025 145.138 150.813C145.23 150.602 145.272 150.371 145.262 150.141C145.273 149.922 145.233 149.703 145.146 149.503C145.058 149.302 144.926 149.124 144.758 148.984C144.312 148.663 143.767 148.513 143.221 148.559L142.467 148.575ZM142.467 154.421V158.359H143.213C144.451 158.359 145.285 158.206 145.715 157.9C145.927 157.75 146.097 157.548 146.21 157.314C146.322 157.08 146.375 156.821 146.361 156.562C146.37 156.258 146.305 155.956 146.171 155.683C146.037 155.41 145.838 155.174 145.592 154.996C145.08 154.613 144.241 154.421 143.075 154.421H142.467Z"
          fill="#2D6A46"/>
    <path fill-rule="evenodd" clip-rule="evenodd"
          d="M152.869 161.147H151.331V149.786H154.16V156.458L160.091 149.786H161.483V161.147H158.654V154.61L152.869 161.147Z"
          fill="#2D6A46"/>
    <path fill-rule="evenodd" clip-rule="evenodd"
          d="M174.975 161.147H172.015L169.116 153.982L166.176 161.147H163.228L168.167 149.786H170.02L174.975 161.147Z"
          fill="#2D6A46"/>
    <path fill-rule="evenodd" clip-rule="evenodd"
          d="M187.998 161.147H185.038L182.14 153.982L179.191 161.147H176.239L181.167 149.786H183.043L187.998 161.147Z"
          fill="#2D6A46"/>
</svg>