<svg width="296" height="277" viewBox="0 0 296 277" fill="none" xmlns="http://www.w3.org/2000/svg">
    <circle cx="148.5" cy="138.5" r="138.5" fill="#FFF5E8"/>
    <path d="M132.611 137.799C112.092 122.364 126.937 104.259 126.937 104.259L164.839 131.454C164.839 131.454 151.874 151.62 132.611 137.799Z"
          fill="#FE9700"/>
    <path d="M191.747 92.3774C181.323 102.829 161.68 95.6086 161.68 95.6086C161.68 95.6086 164.487 79.9293 175.701 71.4843C186.914 63.0393 200.956 67.0628 200.956 67.0628C200.956 67.0628 202.167 81.9223 191.747 92.3774Z"
          fill="#91B93E"/>
    <path d="M205.453 145.689C198.497 157.657 176.607 153.921 176.607 153.921C176.607 153.921 172.733 143.236 180.831 132.997C188.929 122.758 202.375 126.48 202.375 126.48C202.375 126.48 212.409 133.721 205.453 145.689Z"
          fill="#91B93E"/>
    <path d="M162.907 101.44L165.359 98.7712C167.828 99.5849 170.411 99.9994 173.009 99.9992C177.034 100.018 181.001 99.045 184.563 97.1668C188.125 95.2886 191.173 92.5623 193.439 89.2269C195.706 85.8916 197.121 82.0493 197.562 78.0372C198.003 74.0251 197.455 69.9658 195.967 66.2156C195.645 65.3959 195.143 64.6599 194.497 64.0629C193.852 63.4658 193.08 63.0232 192.239 62.7683C187.759 61.4035 182.983 61.3484 178.473 62.6093C173.963 63.8703 169.904 66.395 166.774 69.8875C163.643 73.38 161.57 77.6955 160.798 82.3277C160.026 86.9599 160.587 91.7169 162.415 96.0408L159.97 98.7231C159.62 99.1163 159.438 99.6317 159.464 100.158C159.49 100.684 159.721 101.179 160.108 101.536C160.495 101.893 161.006 102.083 161.531 102.065C162.056 102.047 162.553 101.822 162.914 101.44H162.907ZM169.887 72.3864C172.528 69.5288 175.915 67.4722 179.663 66.451C183.412 65.4297 187.371 65.4849 191.09 66.6101C191.355 66.69 191.598 66.829 191.802 67.0167C192.006 67.2044 192.165 67.436 192.266 67.694C193.657 71.2046 194.062 75.0301 193.437 78.7552C192.813 82.4804 191.183 85.9628 188.725 88.8244C186.267 91.6861 183.074 93.8176 179.493 94.9876C175.912 96.1576 172.08 96.3214 168.413 95.4611L187.161 75.0277C187.523 74.636 187.716 74.1159 187.697 73.5816C187.677 73.0474 187.447 72.5428 187.056 72.1789C186.863 71.9987 186.636 71.8585 186.389 71.7662C186.141 71.674 185.878 71.6315 185.615 71.6412C185.082 71.6608 184.579 71.8919 184.216 72.2835L165.462 92.717C164.357 89.2366 164.184 85.5259 164.961 81.9574C165.737 78.3889 167.436 75.0881 169.887 72.3864Z"
          fill="#1F1F1F"/>
    <path d="M195.094 109.816L195.142 110.591L195.692 111.133C198.713 114.063 202.752 115.698 206.954 115.692C209.251 115.694 211.522 115.199 213.612 114.241C216.356 112.966 218.688 110.945 220.345 108.408C222.001 105.871 222.915 102.918 222.982 99.886C222.996 99.2239 222.86 98.5674 222.585 97.9655C222.31 97.3637 221.902 96.8323 221.392 96.4112C218.978 94.4046 216.032 93.1501 212.915 92.802C209.799 92.454 206.65 93.0276 203.855 94.4524C201.06 95.8771 198.741 98.0908 197.184 100.821C195.628 103.55 194.901 106.677 195.094 109.816ZM206.102 97.8107C208.17 96.8685 210.461 96.5272 212.713 96.8255C214.964 97.1239 217.088 98.0499 218.841 99.4984C218.887 99.5347 218.923 99.5813 218.947 99.6343C218.972 99.6873 218.983 99.7453 218.981 99.8036C218.939 102.099 218.247 104.335 216.986 106.25C215.725 108.166 213.947 109.683 211.859 110.624C209.772 111.565 207.461 111.891 205.195 111.564C202.93 111.238 200.803 110.273 199.064 108.78C199.083 106.472 199.754 104.217 201 102.277C202.246 100.336 204.015 98.7898 206.102 97.8176V97.8107Z"
          fill="#1F1F1F"/>
    <path d="M139.395 90.0174C140.125 90.0183 140.854 89.9575 141.574 89.8356L142.336 89.7087L142.815 89.0981C144.426 87.0483 145.404 84.5703 145.629 81.9697C145.853 79.3691 145.315 76.7594 144.079 74.4622C142.843 72.165 140.963 70.2807 138.673 69.0415C136.382 67.8023 133.78 67.2624 131.188 67.4882C130.6 67.5374 130.03 67.7198 129.523 68.0217C129.015 68.3235 128.582 68.7369 128.257 69.2307C126.919 71.2484 126.152 73.5928 126.039 76.0134C125.926 78.4341 126.47 80.8401 127.615 82.9745C128.759 85.109 130.459 86.8916 132.535 88.132C134.61 89.3725 136.983 90.0241 139.399 90.0174H139.395ZM131.564 71.4946C133.309 71.3493 135.059 71.6991 136.616 72.5041C138.172 73.3091 139.471 74.5368 140.365 76.0471C141.258 77.5574 141.711 79.2893 141.67 81.0451C141.629 82.8009 141.097 84.5099 140.134 85.9767C138.388 86.1215 136.637 85.7708 135.08 84.9647C133.524 84.1587 132.224 82.9298 131.331 81.4183C130.437 79.9069 129.986 78.1739 130.028 76.4173C130.069 74.6607 130.603 72.9513 131.567 71.4843L131.564 71.4946Z"
          fill="#91B93E"/>
    <path d="M234.48 151.064C234.114 150.643 233.661 150.306 233.154 150.076C232.647 149.845 232.096 149.726 231.539 149.726H204.731C206.239 146.175 206.949 142.336 206.812 138.479C206.675 134.623 205.694 130.843 203.938 127.409C203.522 126.583 202.924 125.862 202.189 125.301C201.455 124.74 200.603 124.354 199.697 124.171C195.894 123.388 191.964 123.456 188.19 124.372C184.416 125.288 180.89 127.029 177.864 129.47C174.838 131.912 172.388 134.993 170.687 138.495C168.987 141.996 168.078 145.831 168.027 149.726H120.744C120.752 145.192 119.753 140.714 117.82 136.616C115.886 132.517 113.067 128.903 109.567 126.034C106.067 123.165 101.974 121.114 97.5849 120.03C93.1959 118.946 88.6213 118.856 84.1933 119.767C83.1869 119.971 82.2396 120.401 81.4227 121.024C80.6059 121.648 79.9408 122.45 79.4774 123.369C77.4005 127.43 76.2633 131.909 76.1502 136.473C76.0371 141.036 76.9511 145.566 78.8242 149.726H63.8181C63.261 149.726 62.7104 149.846 62.2031 150.076C61.6957 150.307 61.2434 150.644 60.8762 151.064C60.5091 151.484 60.2356 151.978 60.0742 152.513C59.9127 153.048 59.867 153.611 59.94 154.165C62.6929 175.145 72.9561 194.406 88.8174 208.358C104.679 222.311 125.056 230.005 146.153 230.005H149.204C170.302 230.006 190.68 222.313 206.542 208.36C222.404 194.407 232.668 175.145 235.421 154.165C235.494 153.61 235.448 153.047 235.286 152.512C235.123 151.977 234.849 151.483 234.48 151.064ZM176.597 136.489C179.16 133.139 182.608 130.578 186.55 129.095C190.493 127.613 194.77 127.269 198.897 128.102C199.212 128.167 199.508 128.302 199.763 128.497C200.018 128.693 200.226 128.944 200.371 129.231C201.994 132.404 202.835 135.92 202.825 139.486C202.815 143.051 201.953 146.563 200.313 149.726H185.987C186.938 148.526 187.903 147.325 188.85 146.172C191.124 143.37 193.463 140.492 195.597 137.456C195.752 137.237 195.861 136.989 195.918 136.726C195.975 136.464 195.979 136.192 195.93 135.928C195.881 135.664 195.78 135.412 195.632 135.188C195.484 134.964 195.293 134.772 195.07 134.623C194.637 134.335 194.11 134.228 193.599 134.323C193.089 134.419 192.635 134.71 192.335 135.134C190.283 138.064 187.981 140.89 185.751 143.634C184.144 145.61 182.503 147.641 180.926 149.726H172.035C172.105 144.938 173.704 140.299 176.597 136.489ZM83.0477 125.19C83.2385 124.809 83.5132 124.477 83.8509 124.219C84.1886 123.96 84.5805 123.782 84.997 123.698C88.844 122.906 92.8186 122.983 96.6321 123.924C100.446 124.866 104.002 126.647 107.043 129.14C110.084 131.633 112.533 134.774 114.212 138.335C115.891 141.895 116.758 145.787 116.75 149.726H105.971C104.073 147.205 102.086 144.745 100.157 142.358C97.4827 139.065 94.7298 135.676 92.2675 132.15C91.9605 131.716 91.494 131.421 90.9707 131.332C90.4473 131.242 89.91 131.365 89.4769 131.673C89.0438 131.981 88.7505 132.449 88.6613 132.974C88.5722 133.499 88.6946 134.038 89.0016 134.472C91.5391 138.105 94.3365 141.549 97.0518 144.893C98.3377 146.478 99.644 148.09 100.93 149.726H83.2802C81.2613 145.962 80.1852 141.761 80.1447 137.487C80.1042 133.213 81.1005 128.992 83.0477 125.19ZM149.204 225.992H146.153C104.709 225.992 69.3753 194.939 63.9207 153.739H168.225V153.859H202.57L202.639 153.739H231.444C225.972 194.939 190.649 225.992 149.204 225.992Z"
          fill="#1F1F1F"/>
    <path d="M101.658 103.563C103.241 103.562 104.788 103.091 106.103 102.209C107.419 101.326 108.444 100.073 109.049 98.6058C109.654 97.1391 109.812 95.5253 109.503 93.9685C109.194 92.4118 108.431 90.9819 107.312 89.8597C106.193 88.7375 104.767 87.9734 103.215 87.664C101.662 87.3545 100.054 87.5137 98.5915 88.1213C97.1295 88.7289 95.8799 89.7577 95.0008 91.0776C94.1216 92.3975 93.6523 93.9492 93.6523 95.5365C93.6551 97.6651 94.4995 99.7056 96.0004 101.21C97.5013 102.715 99.536 103.561 101.658 103.563ZM101.658 91.5233C102.449 91.5233 103.223 91.7586 103.881 92.1996C104.539 92.6406 105.052 93.2674 105.355 94.0007C105.658 94.7341 105.737 95.541 105.582 96.3195C105.428 97.098 105.047 97.8131 104.487 98.3744C103.928 98.9356 103.215 99.3178 102.439 99.4727C101.663 99.6276 100.858 99.5481 100.127 99.2443C99.3958 98.9406 98.7709 98.4262 98.3313 97.7662C97.8916 97.1062 97.6569 96.3303 97.6569 95.5365C97.6588 94.4727 98.0809 93.453 98.8309 92.7007C99.5808 91.9485 100.597 91.5251 101.658 91.5233Z"
          fill="#FE9700"/>
    <path d="M122.122 118.055C122.983 122.412 125.038 126.441 128.056 129.69C131.074 132.939 134.936 135.28 139.208 136.448C143.479 137.617 147.991 137.568 152.236 136.306C156.481 135.045 160.291 132.621 163.238 129.306C163.617 128.875 163.901 128.369 164.073 127.821C164.245 127.273 164.3 126.695 164.236 126.124C164.171 125.553 163.988 125.002 163.699 124.506C163.409 124.01 163.02 123.581 162.555 123.245L130.706 100.322C130.24 99.9881 129.709 99.7562 129.148 99.6408C128.587 99.5254 128.008 99.5291 127.449 99.6515C126.889 99.774 126.361 100.013 125.899 100.352C125.437 100.691 125.051 101.124 124.766 101.622C121.946 106.603 121.005 112.436 122.115 118.055H122.122ZM128.254 103.604C128.26 103.594 128.268 103.586 128.277 103.58C128.287 103.573 128.297 103.569 128.309 103.567H128.332C128.342 103.566 128.351 103.568 128.36 103.572C128.369 103.575 128.377 103.58 128.384 103.587L130.217 104.904C128.353 108.271 127.633 112.156 128.165 115.97C128.676 119.444 130.213 122.685 132.579 125.273C134.945 127.861 138.031 129.679 141.437 130.49C141.732 130.561 142.039 130.565 142.336 130.5C142.633 130.436 142.911 130.304 143.15 130.117C143.388 129.929 143.582 129.689 143.715 129.416C143.849 129.143 143.919 128.842 143.92 128.538C143.922 128.088 143.772 127.651 143.495 127.298C143.218 126.944 142.831 126.695 142.395 126.59C139.799 125.978 137.441 124.61 135.62 122.656C133.798 120.703 132.594 118.252 132.159 115.613C131.682 112.757 132.139 109.822 133.462 107.247L139.361 111.494L160.222 126.511C160.233 126.518 160.242 126.528 160.249 126.539C160.255 126.55 160.259 126.563 160.26 126.576C160.262 126.587 160.262 126.599 160.259 126.611C160.256 126.622 160.25 126.632 160.243 126.641C157.791 129.396 154.621 131.411 151.091 132.459C147.56 133.507 143.808 133.548 140.256 132.575C136.704 131.603 133.492 129.657 130.982 126.955C128.471 124.253 126.762 120.903 126.045 117.28C125.124 112.603 125.908 107.75 128.254 103.604Z"
          fill="#1F1F1F"/>
</svg>
