<?xml version="1.0" encoding="utf-8"?>
<!-- Generator: Adobe Illustrator 22.1.0, SVG Export Plug-In . SVG Version: 6.00 Build 0)  -->
<svg version="1.1" id="Layer_1" xmlns="http://www.w3.org/2000/svg" xmlns:xlink="http://www.w3.org/1999/xlink" x="0px" y="0px"
	 viewBox="0 0 38 38" style="enable-background:new 0 0 38 38;" xml:space="preserve">
<style type="text/css">
	.st0{fill:#FE9700;}
	.st1{fill-rule:evenodd;clip-rule:evenodd;fill:#FFFFFF;}
</style>
<path class="st0" d="M19,38L19,38c10.5,0,19-8.5,19-19v0C38,8.5,29.5,0,19,0l0,0C8.5,0,0,8.5,0,19v0C0,29.5,8.5,38,19,38z"/>
<path id="vk_x5F_alt_3_" class="st1" d="M18.3,26.5h1.4c0,0,0.4,0,0.7-0.3c0.2-0.2,0.2-0.6,0.2-0.6s0-1.9,0.9-2.2
	c0.9-0.3,2,1.9,3.2,2.7c0.9,0.6,1.6,0.5,1.6,0.5l3.2,0c0,0,1.7-0.1,0.9-1.4c-0.1-0.1-0.5-1-2.4-2.8c-2-1.9-1.7-1.6,0.7-4.8
	c1.5-2,2.1-3.2,1.9-3.7c-0.2-0.5-1.3-0.4-1.3-0.4l-3.6,0c0,0-0.3,0-0.5,0.1c-0.2,0.1-0.3,0.4-0.3,0.4s-0.6,1.5-1.3,2.8
	c-1.6,2.7-2.3,2.9-2.5,2.7c-0.6-0.4-0.5-1.6-0.5-2.4c0-2.7,0.4-3.8-0.8-4c-0.4-0.1-0.7-0.2-1.7-0.2c-1.3,0-2.4,0-3,0.3
	c-0.4,0.2-0.7,0.7-0.5,0.7c0.2,0,0.8,0.1,1.1,0.5C16,14.8,16,16,16,16s0.2,3.1-0.5,3.5c-0.5,0.3-1.2-0.3-2.6-2.8
	c-0.7-1.3-1.3-2.7-1.3-2.7s-0.1-0.3-0.3-0.4c-0.2-0.2-0.6-0.2-0.6-0.2l-3.4,0c0,0-0.5,0-0.7,0.2c-0.2,0.2,0,0.6,0,0.6
	s2.7,6.3,5.7,9.5C15.1,26.7,18.3,26.5,18.3,26.5L18.3,26.5L18.3,26.5z"/>
</svg>
