<svg xmlns="http://www.w3.org/2000/svg" viewBox="0 0 171.701 40"><defs><style>.a{fill:#00a3fd;}.b{fill:#343738;}</style></defs><path class="a" d="M6.154,1.539A1.53,1.53,0,0,1,7.7,0H15.38a1.539,1.539,0,1,1,0,3.078H7.7A1.536,1.536,0,0,1,6.154,1.539Zm21.539,0A1.53,1.53,0,0,1,29.235,0h7.684a1.539,1.539,0,1,1,0,3.078H29.235A1.536,1.536,0,0,1,27.692,1.539ZM1.539,6.154A1.538,1.538,0,0,1,3.075,4.615H20a1.539,1.539,0,0,1,0,3.078H3.075A1.533,1.533,0,0,1,1.539,6.154Zm21.539,0a1.538,1.538,0,0,1,1.536-1.539H41.541a1.539,1.539,0,0,1,0,3.078H24.614a1.533,1.533,0,0,1-1.536-1.539ZM0,10.769A1.54,1.54,0,0,1,1.53,9.23H27.7a1.539,1.539,0,0,1,0,3.078H1.53A1.53,1.53,0,0,1,0,10.769Zm30.769,0A1.536,1.536,0,0,1,32.3,9.23H43.08a1.539,1.539,0,0,1,0,3.078H32.3A1.533,1.533,0,0,1,30.769,10.769ZM7.693,15.385a1.543,1.543,0,0,1,1.526-1.539H36.936a1.539,1.539,0,0,1,0,3.078H9.219A1.529,1.529,0,0,1,7.693,15.385Zm32.307,0a1.533,1.533,0,0,1,1.537-1.539h1.541a1.539,1.539,0,0,1,0,3.078H41.537A1.534,1.534,0,0,1,40,15.385ZM0,20a1.543,1.543,0,0,1,1.55-1.539H21.528a1.539,1.539,0,1,1,0,3.077H1.55A1.54,1.54,0,0,1,0,20Zm24.615,0a1.547,1.547,0,0,1,1.542-1.539H41.535a1.539,1.539,0,1,1,0,3.077H26.157A1.537,1.537,0,0,1,24.615,20ZM0,15.385a1.538,1.538,0,0,1,1.553-1.539H4.6a1.539,1.539,0,1,1,0,3.078H1.553A1.542,1.542,0,0,1,0,15.385Zm26.154,9.23a1.536,1.536,0,0,1,1.535-1.539H38.465a1.539,1.539,0,0,1,0,3.077H27.689a1.533,1.533,0,0,1-1.535-1.539Zm-21.539,0a1.538,1.538,0,0,1,1.536-1.539H23.079a1.539,1.539,0,0,1,0,3.077H6.151a1.533,1.533,0,0,1-1.536-1.539Zm6.154,4.616a1.543,1.543,0,0,1,1.549-1.539h18.44a1.539,1.539,0,1,1,0,3.077H12.317a1.54,1.54,0,0,1-1.549-1.539Zm4.616,4.615a1.536,1.536,0,0,1,1.535-1.539H27.7a1.539,1.539,0,0,1,0,3.077H16.92A1.533,1.533,0,0,1,15.385,33.846ZM20,38.461a1.533,1.533,0,0,1,1.537-1.539h1.541a1.539,1.539,0,0,1,0,3.077H21.537A1.534,1.534,0,0,1,20,38.461Z"/><path class="b" d="M57.43,25.9v-.406a10.438,10.438,0,0,1-1.63,1.54,6.113,6.113,0,0,1-1.743.9,6.56,6.56,0,0,1-2.051.308,6.032,6.032,0,0,1-2.726-.624,6.375,6.375,0,0,1-2.171-1.78,8.128,8.128,0,0,1-1.39-2.719,11.584,11.584,0,0,1-.474-3.38,8.816,8.816,0,0,1,1.877-6,6.246,6.246,0,0,1,4.942-2.149,6.631,6.631,0,0,1,2.99.609,8.346,8.346,0,0,1,2.374,1.87V8.017a3.057,3.057,0,0,1,.5-1.908,1.715,1.715,0,0,1,1.435-.646,1.777,1.777,0,0,1,1.435.594,2.64,2.64,0,0,1,.5,1.75V25.9a2.508,2.508,0,0,1-.541,1.757,1.818,1.818,0,0,1-1.4.586,1.789,1.789,0,0,1-1.39-.609,2.5,2.5,0,0,1-.549-1.735Zm-8.069-6.025a6.99,6.99,0,0,0,.519,2.84,3.955,3.955,0,0,0,1.42,1.765,3.505,3.505,0,0,0,1.969.594,3.628,3.628,0,0,0,1.976-.564,3.879,3.879,0,0,0,1.427-1.727,6.988,6.988,0,0,0,.534-2.908,6.79,6.79,0,0,0-.534-2.817,4.232,4.232,0,0,0-1.442-1.8,3.444,3.444,0,0,0-1.991-.624,3.357,3.357,0,0,0-2.014.639A4.1,4.1,0,0,0,49.85,17.1a7.3,7.3,0,0,0-.489,2.772Zm27.51,1.038H68.849a5.438,5.438,0,0,0,.564,2.464,3.772,3.772,0,0,0,3.464,2.149,4.924,4.924,0,0,0,1.345-.173,4.354,4.354,0,0,0,1.18-.541,8.9,8.9,0,0,0,1.051-.789q.48-.42,1.247-1.141a1.347,1.347,0,0,1,.9-.27,1.484,1.484,0,0,1,1.021.345,1.237,1.237,0,0,1,.391.976,2.666,2.666,0,0,1-.436,1.3,5.169,5.169,0,0,1-1.315,1.427,7.47,7.47,0,0,1-2.209,1.134A9.522,9.522,0,0,1,73,28.242a8.181,8.181,0,0,1-6.145-2.254,8.393,8.393,0,0,1-2.194-6.115A10.177,10.177,0,0,1,65.2,16.5a7.446,7.446,0,0,1,1.578-2.666,6.835,6.835,0,0,1,2.554-1.7,9.181,9.181,0,0,1,3.365-.594,7.976,7.976,0,0,1,4.124,1.014A6.671,6.671,0,0,1,79.4,15.17a6.889,6.889,0,0,1,.856,3.275q0,1.547-.886,2.006a5.514,5.514,0,0,1-2.494.459ZM68.848,18.58h7.437a4.989,4.989,0,0,0-1.134-3.148,3.393,3.393,0,0,0-2.591-1.044,3.282,3.282,0,0,0-2.516,1.059,5.274,5.274,0,0,0-1.195,3.133Zm17.759-4.462,3.32,9.315,3.576-9.72a5.771,5.771,0,0,1,.826-1.66,1.512,1.512,0,0,1,1.232-.489,1.849,1.849,0,0,1,1.33.526,1.638,1.638,0,0,1,.549,1.218,2.463,2.463,0,0,1-.1.631,5.954,5.954,0,0,1-.225.676c-.085.21-.183.451-.293.721L92.889,25.1c-.11.28-.253.636-.429,1.066a5.542,5.542,0,0,1-.586,1.1,2.31,2.31,0,0,1-.8.714,2.393,2.393,0,0,1-1.149.255,2.221,2.221,0,0,1-1.39-.4,2.69,2.69,0,0,1-.766-.871q-.248-.473-.834-1.87l-3.906-9.66c-.09-.24-.183-.481-.278-.721a6.329,6.329,0,0,1-.24-.736,2.634,2.634,0,0,1-.1-.646,1.573,1.573,0,0,1,.255-.834,2,2,0,0,1,.706-.676,1.906,1.906,0,0,1,.976-.262,1.552,1.552,0,0,1,1.4.586,9.248,9.248,0,0,1,.849,1.969ZM114.025,20.2v5.454a2.8,2.8,0,0,1-.586,1.937,1.992,1.992,0,0,1-1.547.646,1.93,1.93,0,0,1-1.51-.646,2.824,2.824,0,0,1-.579-1.937V19.122a21.023,21.023,0,0,0-.1-2.4,2.6,2.6,0,0,0-.571-1.4,1.83,1.83,0,0,0-1.473-.549A2.615,2.615,0,0,0,105,16.147a9.762,9.762,0,0,0-.639,3.966v5.544a2.827,2.827,0,0,1-.579,1.93,1.941,1.941,0,0,1-1.525.654,1.966,1.966,0,0,1-1.525-.654,2.781,2.781,0,0,1-.594-1.93V13.923a2.565,2.565,0,0,1,.534-1.758,1.791,1.791,0,0,1,1.405-.6,1.905,1.905,0,0,1,1.4.564,2.1,2.1,0,0,1,.564,1.555v.391a7.128,7.128,0,0,1,2.284-1.878,6.031,6.031,0,0,1,2.7-.6,5.4,5.4,0,0,1,2.659.616,4.818,4.818,0,0,1,1.833,1.863,7.121,7.121,0,0,1,2.224-1.87,5.685,5.685,0,0,1,2.629-.609,5.987,5.987,0,0,1,2.9.661,4.2,4.2,0,0,1,1.818,1.892,8.68,8.68,0,0,1,.526,3.5v8.007a2.8,2.8,0,0,1-.586,1.938,1.992,1.992,0,0,1-1.548.646,1.966,1.966,0,0,1-1.525-.654,2.781,2.781,0,0,1-.594-1.93v-6.9a15.837,15.837,0,0,0-.112-2.119,2.426,2.426,0,0,0-.609-1.338,1.941,1.941,0,0,0-1.5-.541,2.746,2.746,0,0,0-1.54.481,3.26,3.26,0,0,0-1.134,1.293,10.271,10.271,0,0,0-.451,3.666Zm23.949,5.724a12.677,12.677,0,0,1-2.878,1.735,8.055,8.055,0,0,1-3.118.579,5.9,5.9,0,0,1-2.773-.624,4.56,4.56,0,0,1-1.84-1.69,4.381,4.381,0,0,1-.646-2.314,4.143,4.143,0,0,1,1.066-2.87,5.33,5.33,0,0,1,2.93-1.593q.39-.09,1.938-.406t2.651-.579q1.1-.262,2.4-.639a4.274,4.274,0,0,0-.654-2.381,2.922,2.922,0,0,0-2.4-.759,4.985,4.985,0,0,0-2.351.436,3.825,3.825,0,0,0-1.353,1.307,13.657,13.657,0,0,1-.8,1.149,1.308,1.308,0,0,1-1,.278,1.746,1.746,0,0,1-1.2-.444,1.443,1.443,0,0,1-.5-1.134,3.468,3.468,0,0,1,.766-2.1,5.477,5.477,0,0,1,2.389-1.683,10.749,10.749,0,0,1,4.041-.661,11.423,11.423,0,0,1,4.251.639,3.955,3.955,0,0,1,2.186,2.021,8.828,8.828,0,0,1,.639,3.666q0,1.442-.008,2.449t-.022,2.239a8.258,8.258,0,0,0,.383,2.411,7.626,7.626,0,0,1,.382,1.615,1.507,1.507,0,0,1-.594,1.149,1.993,1.993,0,0,1-1.345.519,1.813,1.813,0,0,1-1.248-.594,8.818,8.818,0,0,1-1.307-1.72Zm-.27-5.934a20.671,20.671,0,0,1-2.621.7q-1.719.367-2.381.541a3.232,3.232,0,0,0-1.262.676,1.731,1.731,0,0,0-.6,1.405,2.079,2.079,0,0,0,.706,1.585,2.61,2.61,0,0,0,1.847.654,4.8,4.8,0,0,0,2.246-.534,3.558,3.558,0,0,0,1.51-1.375,6.286,6.286,0,0,0,.556-3.065v-.586Zm11.914-6.16v.5a7.191,7.191,0,0,1,2.366-2.1,6.3,6.3,0,0,1,2.952-.669,5.888,5.888,0,0,1,2.9.706,4.48,4.48,0,0,1,1.908,2,4.76,4.76,0,0,1,.526,1.623,16.845,16.845,0,0,1,.12,2.224v7.633a2.711,2.711,0,0,1-.564,1.863,2.025,2.025,0,0,1-2.953-.015,2.7,2.7,0,0,1-.571-1.848V18.912a6.822,6.822,0,0,0-.564-3.1,2.294,2.294,0,0,0-2.246-1.074,3.325,3.325,0,0,0-2,.654,3.761,3.761,0,0,0-1.322,1.795,12.867,12.867,0,0,0-.3,3.425v5.139a2.66,2.66,0,0,1-.579,1.87,1.95,1.95,0,0,1-1.5.624,1.857,1.857,0,0,1-1.458-.646,2.7,2.7,0,0,1-.571-1.848V13.894a2.576,2.576,0,0,1,.511-1.75,1.772,1.772,0,0,1,1.4-.579,1.9,1.9,0,0,1,.976.255,1.832,1.832,0,0,1,.7.766,2.7,2.7,0,0,1,.262,1.248Z" transform="translate(11.311 1.366)"/></svg>