<svg width="38" height="113" viewBox="0 0 38 113" fill="none" xmlns="http://www.w3.org/2000/svg">
    <path d="M29.0888 90.2901C28.4396 93.3218 27.3515 96.2427 25.8588 98.96C29.3827 103.635 33.1969 108.084 37.2788 112.28C36.9788 112.59 35.1788 112.02 34.4488 111.59C32.5288 109.65 30.2988 107.15 28.0388 104.38C26.8088 104.78 23.4788 105.17 16.5588 101.38C14.4988 100.26 9.42883 95.2403 10.3388 94.1499C10.8788 93.4903 17.1988 95.0899 19.5488 96.3501C21.1569 97.2144 22.6861 98.2183 24.1188 99.3501C22.6588 97.3501 21.2488 95.3501 19.9688 93.3501C18.7188 93.5601 15.3888 93.44 9.22882 88.44C7.42883 86.98 3.34883 81.1402 4.42882 80.21C5.04883 79.6499 10.9788 82.3199 13.0488 83.9702C14.1767 84.8594 15.2395 85.8286 16.2288 86.8701C15.9788 86.3399 15.7388 85.8399 15.5288 85.3399C14.9088 83.9302 14.3488 82.5098 13.8288 81.0699C12.4688 81.0098 9.28884 80.1299 4.34883 74.3902C2.83884 72.6099 -0.121168 66.1299 1.10883 65.3902C1.87883 64.9502 7.13883 68.5899 8.87883 70.5899C9.92987 71.7803 10.8861 73.0508 11.7388 74.3902C11.1688 72.2403 10.6788 70.0699 10.2888 67.8799C9.05882 67.6099 6.00884 66.3599 2.05882 59.6099C0.888826 57.6099 -0.841169 50.6099 0.468828 50.1299C1.25882 49.8199 5.80882 54.3399 7.15883 56.6099C8.01288 58.0777 8.74532 59.6128 9.34883 61.2002C9.13883 58.8599 9.02883 56.5298 9.02883 54.2002C7.88883 53.8101 5.09883 52.1001 2.36882 44.5801C1.57883 42.3902 1.09883 35.2403 2.48883 34.9502C3.32883 34.7701 6.97882 40.0201 7.89882 42.5C8.5045 44.1245 8.97281 45.7969 9.29883 47.5C9.48883 45.1402 9.79883 42.7901 10.2088 40.44C9.15883 39.8599 6.73883 37.69 5.39882 29.7701C5.00882 27.4702 5.79883 20.2998 7.21883 20.25C8.06882 20.2202 10.7088 26.0498 11.1688 28.6602C11.4712 30.354 11.635 32.0694 11.6588 33.7901C12.2655 31.4702 12.9788 29.17 13.7988 26.8902C12.9088 26.0601 11.2888 23.6099 11.3688 16.6099C11.3888 14.4702 13.2588 8.10989 14.5288 8.27981C15.2988 8.39017 16.6988 14.0699 16.6988 16.5C16.6981 17.8618 16.6012 19.2217 16.4088 20.5699C17.1888 18.8902 18.0322 17.2232 18.9388 15.5699C18.7488 14.2598 19.0488 11.21 23.2488 5.43997C24.5788 3.62015 29.9788 -0.729951 30.9088 0.169952C31.4688 0.709991 29.1488 6.41019 27.6588 8.49026C25.608 11.4986 22.9554 14.0489 19.8688 15.98C18.8288 18 17.8588 20.0801 16.9688 22.0801C18.1332 20.5879 19.4766 19.2442 20.9688 18.0801C29.0688 12.5098 31.6688 14.0801 31.6688 14.0801C31.6688 14.0801 29.6888 17.8501 23.7688 21.8501C21.8488 23.1602 16.7688 25.21 15.7688 25.0601C14.6388 27.9185 13.664 30.8365 12.8488 33.7998C14.1429 31.8155 15.708 30.0215 17.4988 28.4702C25.8388 22.2901 28.6888 23.8199 28.6888 23.8199C28.6888 23.8199 26.7888 27.8999 20.6888 32.3599C18.6588 33.8501 13.2888 36.2701 12.2888 36.0899C11.4294 39.6148 10.8278 43.1978 10.4888 46.8101C11.613 44.4619 13.0715 42.2896 14.8188 40.3599C22.9688 32.5801 26.2788 33.8301 26.2788 33.8301C26.2788 33.8301 24.7988 38.4702 18.7988 44.0899C16.8588 45.92 11.5588 49.1499 10.2988 49.2403C9.80086 57.6934 10.7202 66.17 13.0188 74.3199C12.8688 72.21 14.1588 67.2798 15.1588 65.5401C20.4888 55.7202 24.0688 55.8701 24.0688 55.8701C24.0688 55.8701 24.1188 60.67 20.1788 67.7998C18.8088 70.2998 14.2388 75.5 13.4588 75.2998C13.3719 75.2793 13.2945 75.23 13.2388 75.1602C13.9888 77.75 14.9088 80.3799 15.9088 83.0201C16.392 84.2315 16.9463 85.4136 17.5688 86.5601C17.3055 83.7325 17.5322 80.8804 18.2388 78.1299C21.7788 67.6001 25.3488 67.1299 25.3488 67.1299C25.3488 67.1299 26.2588 71.8199 23.6188 79.4702C22.7188 82.0699 19.2588 87.75 18.3388 87.94C20.0312 90.8365 21.8772 93.6407 23.8688 96.3399C23.4647 94.2256 23.347 92.0659 23.5188 89.92C25.1688 78.9903 28.6288 77.92 28.6288 77.92C28.6288 77.92 30.3488 82.3599 29.0888 90.2901Z"
          fill="#1D1D1B"/>
    <path d="M10.9788 61.8599C9.74883 61.3101 12.8188 54.48 14.3688 52.48C21.3188 43.6602 24.7988 44.42 24.7988 44.42C24.7988 44.42 23.9988 49.19 18.8888 55.5699C17.1088 57.7998 11.7088 62.2002 10.9788 61.8599Z"
          fill="#1D1D1B"/>
</svg>
