<svg width="38" height="113" viewBox="0 0 38 113" fill="none" xmlns="http://www.w3.org/2000/svg">
    <path d="M25.6001 74.3409C26.4526 73.0015 27.4092 71.731 28.46 70.5411C30.2002 68.5508 35.5 64.9009 36.1699 65.231C37.3999 65.9912 34.4399 72.4712 32.9302 74.231C27.9902 79.9712 24.8101 80.8511 23.4502 80.9112C22.9302 82.3511 22.3701 83.771 21.75 85.1812C21.54 85.711 21.3003 86.191 21.0503 86.711C22.0396 85.6695 23.1021 84.7007 24.23 83.8111C26.3003 82.1612 32.2002 79.4912 32.8501 80.0508C33.9302 80.981 29.8599 86.8208 28.0503 88.2808C21.8901 93.251 18.5601 93.4009 17.3101 93.191C16.0303 95.191 14.6201 97.191 13.1602 99.191C14.5928 98.0596 16.1221 97.0557 17.73 96.191C20.0801 94.9312 26.3999 93.3311 26.9399 93.9912C27.8501 95.0811 22.7803 100.101 20.7202 101.221C13.8003 105.031 10.4702 104.641 9.24023 104.221C6.97998 106.991 4.75 109.491 2.83008 111.431C2.26367 111.765 1.05322 112.201 0.398926 112.22C0.209961 112.226 0.0673828 112.197 0 112.121C4.07861 107.96 7.89258 103.548 11.4199 98.9112C9.92725 96.1934 8.83936 93.273 8.18994 90.2412C6.93018 82.3111 8.6499 77.8711 8.6499 77.8711C8.6499 77.8711 12.1099 78.9712 13.7603 89.8711C13.9316 92.0171 13.814 94.1763 13.4102 96.2911C15.4019 93.5913 17.2476 90.7876 18.9399 87.8912C18.02 87.7012 14.5601 82.021 13.6602 79.4209C11.02 71.771 11.9302 67.0811 11.9302 67.0811C11.9302 67.0811 15.5 67.5708 19.04 78.0811C19.7466 80.8316 19.9736 83.6836 19.71 86.5108C20.3325 85.3648 20.8867 84.1827 21.3701 82.9712C22.3999 80.3311 23.29 77.7012 24.04 75.1109C23.9844 75.1807 23.9067 75.23 23.8198 75.251C23.04 75.4512 18.4702 70.231 17.1001 67.751C13.1602 60.6211 13.21 55.8208 13.21 55.8208C13.21 55.8208 16.79 55.6709 22.1201 65.4912C23.0698 67.271 24.4102 72.1612 24.2603 74.271C26.5586 66.1211 27.478 57.6441 26.98 49.191C25.7202 49.1011 20.4199 45.8711 18.48 44.0411C12.5 38.4209 11 33.7808 11 33.7808C11 33.7808 14.3101 32.5308 22.46 40.3111C24.2075 42.2408 25.666 44.4131 26.79 46.7608C26.4512 43.149 25.8496 39.566 24.9902 36.0411C24 36.2212 18.5898 33.8008 16.5898 32.3111C10.52 27.8511 8.58984 23.771 8.58984 23.771C8.58984 23.771 11.4399 22.2413 19.7803 28.4209C21.5708 29.9722 23.1362 31.7662 24.4302 33.751C23.6147 30.7872 22.6401 27.8697 21.5103 25.0108C20.5103 25.1612 15.4502 23.1109 13.5103 21.8008C7.60986 17.8208 5.60986 14.0308 5.60986 14.0308C5.60986 14.0308 8.20996 12.501 16.3101 18.0308C17.0962 18.6446 17.8413 19.3077 18.5405 20.0162C19.1685 20.6524 19.7593 21.3247 20.3101 22.0308C19.4102 19.9913 18.4102 17.9312 17.4102 15.9312C14.3232 14 11.6709 11.4493 9.62012 8.44096C8.12012 6.36088 5.81006 0.661174 6.37012 0.121135C7.30029 -0.778768 12.7002 3.57084 14.0303 5.39115C18.23 11.1612 18.52 14.211 18.3398 15.521C19.2466 17.1675 20.0898 18.8345 20.8701 20.521C20.6777 19.1729 20.5806 17.813 20.5801 16.4512C20.5698 14.021 21.98 8.34086 22.75 8.231C24.02 8.06108 25.9102 14.4209 25.9102 16.5611C25.9902 23.5508 24.3701 26.0108 23.48 26.8409C24.3003 29.1143 25.0132 31.4175 25.6201 33.751C25.6436 32.0274 25.8071 30.3081 26.1099 28.6109C26.5698 26.001 29.21 20.2012 30.0601 20.2012C31.48 20.251 32.27 27.4209 31.8799 29.7212C30.54 37.6412 28.1201 39.8111 27.0698 40.3912C27.48 42.7413 27.79 45.0909 27.98 47.4512C28.3062 45.7481 28.7744 44.0757 29.3799 42.4512C30.3003 39.9712 33.9502 34.7212 34.79 34.9009C36.1802 35.191 35.7002 42.3409 34.8999 44.5308C32.1699 52.0508 29.3901 53.7608 28.2402 54.1509C28.2466 56.4976 28.1436 58.8311 27.9302 61.1509C28.5513 59.5723 29.3003 58.0474 30.1699 56.5909C31.52 54.3208 36.0698 49.8008 36.8599 50.1109C38.1899 50.6412 36.4502 57.5611 35.2803 59.5611C31.3301 66.3111 28.3003 67.6109 27.0503 67.8311C26.6602 70.021 26.1699 72.191 25.6001 74.3409Z"
          fill="#1F1F1F"/>
    <path d="M22.9702 52.481C24.52 54.4512 27.5898 61.3111 26.3599 61.8609C25.6299 62.2012 20.23 57.8008 18.4502 55.5708C13.3398 49.191 12.54 44.4209 12.54 44.4209C12.54 44.4209 16.02 43.6612 22.9702 52.481Z"
          fill="#1F1F1F"/>
</svg>
